<?xml version="1.0" encoding="UTF-8" standalone="no"?>
<svg
   viewBox="0 0 400.00001 400"
   width="800"
   height="800"
   version="1.1"
   id="svg242"
   sodipodi:docname="github.svg"
   inkscape:version="1.2.2 (732a01da63, 2022-12-09)"
   xmlns:inkscape="http://www.inkscape.org/namespaces/inkscape"
   xmlns:sodipodi="http://sodipodi.sourceforge.net/DTD/sodipodi-0.dtd"
   xmlns="http://www.w3.org/2000/svg"
   xmlns:svg="http://www.w3.org/2000/svg">
  <defs
     id="defs246" />
  <sodipodi:namedview
     id="namedview244"
     pagecolor="#ffffff"
     bordercolor="#000000"
     borderopacity="0.25"
     inkscape:showpageshadow="2"
     inkscape:pageopacity="0.0"
     inkscape:pagecheckerboard="0"
     inkscape:deskcolor="#d1d1d1"
     showgrid="false"
     inkscape:zoom="0.4453125"
     inkscape:cx="167.29825"
     inkscape:cy="545.68421"
     inkscape:window-width="1920"
     inkscape:window-height="1009"
     inkscape:window-x="-8"
     inkscape:window-y="-8"
     inkscape:window-maximized="1"
     inkscape:current-layer="svg242" />
  <path
     d="M 200.00001,0 C 89.550001,0 0,90.95218 0,203.13162 c 0,95.18408 64.533334,174.82861 151.53334,196.86839 -0.93333,-2.74228 -1.53333,-5.92469 -1.53333,-9.86881 v -34.71859 c -8.11667,0 -21.71667,0 -25.13334,0 -13.68333,0 -25.850002,-5.97545 -31.750001,-17.07998 C 86.566668,325.99238 85.433336,307.11808 69.2,295.57343 c -4.816666,-3.84258 -1.149998,-8.22683 4.400001,-7.63437 10.25,2.94541 18.750001,10.08888 26.750009,20.68557 7.96666,10.61363 11.71666,13.01735 26.6,13.01735 7.21666,0 18.01667,-0.42319 28.18333,-2.04825 C 160.6,305.49302 170.05,292.50953 181.60001,286.38172 115,279.42446 83.216668,245.77232 83.216668,200.08464 c 0,-19.66993 8.250001,-38.69657 22.266662,-54.72704 -4.59999,-15.91197 -10.383327,-48.362254 1.76668,-60.719429 29.96666,0 48.08333,19.737629 52.43332,25.069839 14.93335,-5.1968 31.33335,-8.14221 48.56668,-8.14221 17.26666,0 33.73332,2.94541 48.7,8.17606 4.3,-5.29835 22.43333,-25.103689 52.46666,-25.103689 12.2,12.374102 6.35,44.959799 1.7,60.837919 13.93334,15.99662 22.13334,34.9725 22.13334,54.60855 0,45.65384 -31.73334,79.28904 -98.23333,86.28015 18.29999,9.69955 31.65,36.95303 31.65,57.48624 v 46.28017 c 0,1.76046 -0.38334,3.03002 -0.58333,4.5366 C 344.01667,366.9234 400,291.7647 400,203.13162 400,90.95218 310.45001,0 200.00001,0 Z"
     id="path240"
     style="stroke-width:16.7967;fill:#1a1a1a;fill-opacity:1" />
</svg>
