<?xml version="1.0" encoding="UTF-8" standalone="no"?>
<svg
   viewBox="0 0 400 400"
   width="800"
   height="800"
   version="1.1"
   id="svg367"
   sodipodi:docname="linkedin.svg"
   inkscape:version="1.2.2 (732a01da63, 2022-12-09)"
   xmlns:inkscape="http://www.inkscape.org/namespaces/inkscape"
   xmlns:sodipodi="http://sodipodi.sourceforge.net/DTD/sodipodi-0.dtd"
   xmlns="http://www.w3.org/2000/svg"
   xmlns:svg="http://www.w3.org/2000/svg">
  <defs
     id="defs371" />
  <sodipodi:namedview
     id="namedview369"
     pagecolor="#ffffff"
     bordercolor="#000000"
     borderopacity="0.25"
     inkscape:showpageshadow="2"
     inkscape:pageopacity="0.0"
     inkscape:pagecheckerboard="0"
     inkscape:deskcolor="#d1d1d1"
     showgrid="false"
     inkscape:zoom="0.70710678"
     inkscape:cx="355.67471"
     inkscape:cy="500.6316"
     inkscape:window-width="1920"
     inkscape:window-height="1009"
     inkscape:window-x="-8"
     inkscape:window-y="-8"
     inkscape:window-maximized="1"
     inkscape:current-layer="svg367" />
  <path
     d="M 363.63636,0 H 36.363636 C 16.272729,0 0,16.272726 0,36.363634 V 363.63636 c 0,20.0909 16.272729,36.36362 36.363636,36.36362 H 363.63636 C 383.72727,399.99998 400,383.72726 400,363.63636 V 36.363634 C 400,16.272726 383.72727,0 363.63636,0 Z M 126.43637,327.27271 H 72.799999 V 154.69091 H 126.43637 Z M 99.072718,130.01818 c -17.290903,0 -31.27272,-14.01819 -31.27272,-31.27273 0,-17.254545 14,-31.254545 31.27272,-31.254545 17.236362,0 31.254562,14.018182 31.254562,31.254545 0,17.25454 -14.0182,31.27273 -31.254562,31.27273 z M 327.34545,327.27271 h -53.59999 v -83.92726 c 0,-20.01818 -0.36368,-45.76364 -27.87274,-45.76364 -27.90908,0 -32.19999,21.8 -32.19999,44.30909 v 85.38181 h -53.59999 v -172.5818 h 51.45453 v 23.58181 h 0.72736 c 7.16364,-13.56364 24.65454,-27.87273 50.74545,-27.87273 54.3091,0 64.34545,35.74545 64.34545,82.21818 v 94.65454 z"
     id="path365"
     style="stroke-width:18.1818;fill:#1a1a1a;fill-opacity:1" />
</svg>
