<?xml version="1.0" encoding="UTF-8" standalone="no"?>
<!-- Created with Inkscape (http://www.inkscape.org/) -->

<svg
   width="1920"
   height="1080"
   viewBox="0 0 508 285.75"
   version="1.1"
   id="svg348"
   xml:space="preserve"
   inkscape:version="1.2.2 (732a01da63, 2022-12-09)"
   sodipodi:docname="fish.svg"
   xmlns:inkscape="http://www.inkscape.org/namespaces/inkscape"
   xmlns:sodipodi="http://sodipodi.sourceforge.net/DTD/sodipodi-0.dtd"
   xmlns:xlink="http://www.w3.org/1999/xlink"
   xmlns="http://www.w3.org/2000/svg"
   xmlns:svg="http://www.w3.org/2000/svg"><sodipodi:namedview
     id="namedview350"
     pagecolor="#ffffff"
     bordercolor="#000000"
     borderopacity="0.25"
     inkscape:showpageshadow="2"
     inkscape:pageopacity="0.0"
     inkscape:pagecheckerboard="0"
     inkscape:deskcolor="#d1d1d1"
     inkscape:document-units="mm"
     showgrid="false"
     inkscape:zoom="0.35355339"
     inkscape:cx="661.85195"
     inkscape:cy="472.34733"
     inkscape:window-width="1920"
     inkscape:window-height="1009"
     inkscape:window-x="-8"
     inkscape:window-y="-8"
     inkscape:window-maximized="1"
     inkscape:current-layer="layer1" /><defs
     id="defs345"><inkscape:path-effect
       effect="powerstroke"
       id="path-effect2604"
       is_visible="true"
       lpeversion="1"
       offset_points="0.26181001,1.5655004 | 1.8355412,0.80954434"
       not_jump="false"
       sort_points="true"
       interpolator_type="CentripetalCatmullRom"
       interpolator_beta="0.2"
       start_linecap_type="square"
       linejoin_type="miter"
       miter_limit="4"
       scale_width="1"
       end_linecap_type="square" /><inkscape:path-effect
       effect="powerstroke"
       id="path-effect2602"
       is_visible="true"
       lpeversion="1"
       offset_points="0,1.624597 | 1.9084181,0.83570613"
       not_jump="false"
       sort_points="true"
       interpolator_type="CentripetalCatmullRom"
       interpolator_beta="0.2"
       start_linecap_type="square"
       linejoin_type="miter"
       miter_limit="4"
       scale_width="1"
       end_linecap_type="square" /><inkscape:path-effect
       effect="powerstroke"
       id="path-effect2565"
       is_visible="true"
       lpeversion="1"
       offset_points="0,1.774062 | 1.8135541,0.75979593"
       not_jump="false"
       sort_points="true"
       interpolator_type="CentripetalCatmullRom"
       interpolator_beta="0.2"
       start_linecap_type="square"
       linejoin_type="miter"
       miter_limit="4"
       scale_width="1"
       end_linecap_type="square" /><inkscape:path-effect
       effect="powerstroke"
       id="path-effect2563"
       is_visible="true"
       lpeversion="1"
       offset_points="0.1981794,1.7412758 | 1.9111515,0.65735527"
       not_jump="false"
       sort_points="true"
       interpolator_type="CentripetalCatmullRom"
       interpolator_beta="0.2"
       start_linecap_type="square"
       linejoin_type="miter"
       miter_limit="4"
       scale_width="1"
       end_linecap_type="square" /><inkscape:path-effect
       effect="powerstroke"
       id="path-effect2520"
       is_visible="true"
       lpeversion="1"
       offset_points="2,2.1273923 | 0.026910748,3.9569627"
       not_jump="false"
       sort_points="true"
       interpolator_type="Linear"
       interpolator_beta="0"
       start_linecap_type="square"
       linejoin_type="miter"
       miter_limit="4"
       scale_width="1"
       end_linecap_type="square" /><inkscape:path-effect
       effect="powerstroke"
       id="path-effect2516"
       is_visible="true"
       lpeversion="1"
       offset_points="0.34332999,2.8916786 | 3.748204,1.1312836 | 2.2012159,1.180326"
       not_jump="false"
       sort_points="true"
       interpolator_type="CentripetalCatmullRom"
       interpolator_beta="0.2"
       start_linecap_type="square"
       linejoin_type="miter"
       miter_limit="4"
       scale_width="1"
       end_linecap_type="square" /><inkscape:path-effect
       effect="powerstroke"
       id="path-effect2512"
       is_visible="true"
       lpeversion="1"
       offset_points="0.29235065,2.5791177 | 3.7224383,1.0712294"
       not_jump="false"
       sort_points="true"
       interpolator_type="CentripetalCatmullRom"
       interpolator_beta="0.2"
       start_linecap_type="square"
       linejoin_type="miter"
       miter_limit="4"
       scale_width="1"
       end_linecap_type="square" /><inkscape:path-effect
       effect="powerstroke"
       id="path-effect2485"
       is_visible="true"
       lpeversion="1"
       offset_points="0.023895226,1.1608968 | 1.8655655,0.38660073"
       not_jump="false"
       sort_points="true"
       interpolator_type="CentripetalCatmullRom"
       interpolator_beta="0.2"
       start_linecap_type="square"
       linejoin_type="miter"
       miter_limit="4"
       scale_width="1"
       end_linecap_type="square" /><inkscape:path-effect
       effect="powerstroke"
       id="path-effect2481"
       is_visible="true"
       lpeversion="1"
       offset_points="0.2,0.89999998 | 1.776576,0.29510277"
       not_jump="false"
       sort_points="true"
       interpolator_type="CentripetalCatmullRom"
       interpolator_beta="0.2"
       start_linecap_type="square"
       linejoin_type="miter"
       miter_limit="4"
       scale_width="1"
       end_linecap_type="square" /><inkscape:path-effect
       effect="powerstroke"
       id="path-effect2376"
       is_visible="true"
       lpeversion="1"
       offset_points="0.69756343,1.0184108 | 1.7102268,2.1836285 | 4.7465457,1.2142841 | 7.8113563,0.86400295"
       not_jump="false"
       sort_points="true"
       interpolator_type="CentripetalCatmullRom"
       interpolator_beta="0"
       start_linecap_type="square"
       linejoin_type="miter"
       miter_limit="4"
       scale_width="1"
       end_linecap_type="square" /><inkscape:path-effect
       effect="powerstroke"
       id="path-effect2372"
       is_visible="true"
       lpeversion="1"
       offset_points="0.17629469,1.9215472 | 1.6697512,0.84329333 | 4.6574384,1.0420984 | 10.659029,0.94612663 | 12.757877,0.9130959"
       not_jump="false"
       sort_points="true"
       interpolator_type="CentripetalCatmullRom"
       interpolator_beta="0.2"
       start_linecap_type="square"
       linejoin_type="miter"
       miter_limit="4"
       scale_width="1"
       end_linecap_type="square" /><inkscape:path-effect
       effect="powerstroke"
       id="path-effect2305"
       is_visible="true"
       lpeversion="1"
       offset_points="0.27840223,1.7540338 | 1.3990227,2.8924021 | 3.4216366,2.332165 | 3.848014,1.8983077 | 6.8829042,1.4572552 | 11.450306,2.1122035 | 8.3579421,2.1047933 | 12.784158,2.6325837"
       not_jump="false"
       sort_points="true"
       interpolator_type="Linear"
       interpolator_beta="0.16257669"
       start_linecap_type="square"
       linejoin_type="miter"
       miter_limit="4"
       scale_width="1"
       end_linecap_type="square" /><inkscape:path-effect
       effect="powerstroke"
       id="path-effect2301"
       is_visible="true"
       lpeversion="1"
       offset_points="0.21201718,2.1689205 | 2.6584292,1.388002 | 3.4517701,1.6269504 | 5.104636,3.1816323 | 6,2.6614767 | 1.0964513,2.5723099"
       not_jump="false"
       sort_points="true"
       interpolator_type="Linear"
       interpolator_beta="0.2"
       start_linecap_type="square"
       linejoin_type="miter"
       miter_limit="4"
       scale_width="1"
       end_linecap_type="square" /><inkscape:path-effect
       effect="powerstroke"
       id="path-effect2297"
       is_visible="true"
       lpeversion="1"
       offset_points="0.039227039,4.97705 | 1.5263225,1.6101328 | 3.046873,2.1867709 | 5.4388415,5.7386819 | 6.7322512,3.5300484"
       not_jump="false"
       sort_points="true"
       interpolator_type="CentripetalCatmullRom"
       interpolator_beta="0"
       start_linecap_type="square"
       linejoin_type="miter"
       miter_limit="4.6"
       scale_width="1"
       end_linecap_type="butt" /><inkscape:path-effect
       effect="powerstroke"
       id="path-effect1414"
       is_visible="true"
       lpeversion="1"
       offset_points="8.8107756,2.9392232 | 6.8310069,2.9856419 | 13.905294,4.5351771 | 15,2.3442992 | 11.673615,2.7459385 | 9.5163553,3.4614033 | 0.53341192,3.549269 | 2.7214457,3.6336707 | 5.2334353,3.06541 | 15.604156,2.0823801 | 17.308243,3.9194254"
       not_jump="false"
       sort_points="true"
       interpolator_type="CentripetalCatmullRom"
       interpolator_beta="0.2"
       start_linecap_type="square"
       linejoin_type="miter"
       miter_limit="4"
       scale_width="1"
       end_linecap_type="zerowidth" /><clipPath
       clipPathUnits="userSpaceOnUse"
       id="clipPath9640"><path
         style="font-variation-settings:'wght' 700;fill:none;stroke:#000000;stroke-width:2.565;stroke-dasharray:none;paint-order:markers stroke fill;stop-color:#000000"
         d="m 328.86395,208.47577 13.49031,4.55944 17.98829,9.3265 4.94028,3.43849 2.04488,3.13298 21.93557,-1.47267 17.51022,6.05669 20.5431,9.70025 28.54536,3.22551 30.62017,-4.98426 23.67075,-6.95735 -1.97679,-3.2352 -21.49438,-2.95557 -25.58607,-14.53526 -16.08039,-8.20314 -27.49236,-11.23052 -33.99638,-6.11881 -28.372,5.15375 -17.74344,8.24955 z"
         id="path9642"
         inkscape:label="bound" /></clipPath></defs><g
     inkscape:label="Layer 1"
     inkscape:groupmode="layer"
     id="layer1"><path
       style="font-variation-settings:'wght' 700;fill:#000000;fill-rule:nonzero;stroke:none;stroke-width:10.5833;stroke-opacity:1;stop-color:#000000"
       d="m 268.81301,50.309379 c -1.54409,2.038195 -5.12607,6.774004 -9.26453,12.229169 -2.20815,2.910704 -4.98947,6.562287 -8.12727,10.679434 l -0.50548,0.663242 -0.15902,0.836414 c -2.28784,12.034026 -5.00574,26.310892 -7.71047,40.629242 l -0.0952,0.50376 0.0488,0.51629 c 1.01782,10.77673 2.04753,21.57233 3.02173,31.57516 0.38823,3.98634 0.78849,8.05683 1.1977,12.1884 l 0.10153,1.02507 0.60554,0.79723 c 7.58233,9.98274 15.57818,20.45361 23.46286,30.77336 l 0.17995,0.23553 0.18254,0.17232 c 11.01328,10.397 21.8649,20.63641 31.78679,30.0367 l 0.56638,0.53661 0.72632,0.2046 c 4.07962,1.14919 8.06328,2.27341 11.93084,3.36756 14.26956,4.03693 26.84837,7.6149 39.16011,11.12462 l 0.33381,0.0952 0.34265,0.0167 c 11.36781,0.55513 22.46066,1.10639 34.92944,1.71378 2.29711,0.1119 4.67064,0.22623 7.10352,0.34251 l 8.94606,0.4276 -6.89353,-5.68604 c -3.45554,-2.85025 -7.36311,-6.04266 -11.0405,-9.07616 -3.53972,-7.50334 -6.81986,-14.51346 -9.24235,-19.85702 -0.71881,-1.58556 -1.32995,-2.96809 -1.88008,-4.23483 -0.42896,-7.20548 -0.6363,-12.37766 -1.35917,-21.97939 -0.45096,-5.99002 -1.07111,-13.13718 -1.78294,-20.99213 l -0.0236,-0.26092 -0.0407,-0.17732 c -2.24624,-9.78146 -4.90848,-21.02964 -7.45385,-32.19634 l -0.0719,-0.31562 -0.10592,-0.23295 c -3.3725,-7.41756 -6.68567,-14.80732 -9.67985,-21.72332 -1.49001,-3.44165 -2.98816,-6.994778 -4.48826,-10.614562 l -0.16499,-0.398129 -0.38824,-0.43345 c -6.0908,-6.80004 -12.31512,-14.06095 -18.29531,-20.915433 l -0.2416,-0.276918 -0.61077,-0.406988 c -6.67329,-4.446777 -13.04785,-8.593133 -18.61201,-11.747961 -0.67642,-0.383525 -1.34784,-0.755651 -2.01401,-1.117423 l -0.50506,-0.27428 -0.19192,-0.06528 c -9.96358,-3.388761 -18.68551,-5.279423 -26.11454,-7.75359 l -2.40667,-0.801517 -0.64611,2.217454 c -1.49979,5.14724 -2.36402,7.810713 -4.36976,13.307824 -0.58426,1.601277 -1.30461,3.46058 -2.11451,5.490524 0.53394,0.439697 -1.41241,-1.12289 -3.25783,-2.553404 0.20129,-1.164404 0.37433,-2.247898 0.50918,-3.221267 0.66288,-4.784819 0.8953,-9.849516 1.07436,-11.81942 z m -0.69387,1.711871 c -0.30153,1.954907 -1.29799,6.926048 -1.80918,11.729441 -0.1614,1.516685 -0.29753,3.313049 -0.4181,5.274089 l -0.1694,2.755154 1.97442,0.884043 c 2.72784,1.221377 6.15445,2.552889 8.97583,3.767749 l 2.78088,1.197419 0.7308,-2.492738 c 0.98052,-3.344503 1.90056,-6.375892 2.70138,-8.775773 1.53682,-4.605465 2.47432,-7.195085 3.90878,-10.777685 4.95082,2.130395 12.54943,6.454134 21.98033,10.532176 0.57695,0.37944 1.16354,0.758627 1.76039,1.137028 5.31776,3.371456 11.85285,6.983677 18.7939,10.716235 5.9023,5.728879 12.70696,12.220986 19.08572,18.56676 1.57385,3.369485 3.10314,6.695482 4.56302,9.948092 3.04513,6.78455 6.22128,14.10958 9.38044,21.50186 2.19958,10.87639 4.37815,22.12409 6.3382,31.90407 0.54154,7.79763 1.06144,14.88928 1.56467,20.82933 0.83054,9.80351 1.45723,14.95566 2.1998,22.3882 l 0.0625,0.62597 0.21669,0.42719 c 0.70146,1.38288 1.46195,2.90811 2.33873,4.71674 2.62604,5.41706 6.02371,12.65033 9.6316,20.39252 l 0.26591,0.57062 0.49719,0.41816 c 3.78843,3.18621 7.82217,6.61598 11.40012,9.62827 l 2.05253,-5.25844 c -2.43245,-0.12497 -4.80566,-0.24602 -7.10257,-0.36193 -12.34092,-0.62273 -23.33494,-1.16682 -34.58097,-1.73275 -12.20242,-3.4944 -24.67537,-7.07415 -38.7965,-11.14851 -3.62448,-1.04576 -7.34977,-2.12306 -11.15952,-3.22668 -9.22921,-8.90367 -19.87018,-19.21091 -30.67832,-29.67531 -7.37546,-9.94401 -15.00891,-20.23044 -22.31891,-30.03084 -0.34721,-3.79263 -0.69202,-7.53153 -1.03337,-11.19863 -0.91679,-9.84893 -1.92572,-20.46213 -2.94386,-31.0676 2.52484,-13.48953 5.11895,-27.456439 7.32592,-39.325558 2.90495,-3.857373 5.48579,-7.281929 7.56844,-10.034867 4.13114,-5.460711 7.72044,-10.190975 9.26452,-12.22917 z"
       id="path588"
       inkscape:path-effect="#path-effect1414"
       inkscape:original-d="m 271.6421,52.452632 -17.36842,22.926315 -7.6421,40.642103 4.16842,43.76842 23.27367,30.91579 31.61054,30.22105 51.06315,14.58948 42.03158,2.08421 -11.46315,-9.55263 -11.81053,-25.18421 -3.47369,-43.42106 -6.94737,-32.30526 -14.2421,-32.305261 -19.10527,-20.14737 -20.8421,-12.505261 -25.35788,-9.726316 -7.64212,21.884208 -8.33684,-4.863158 z"
       sodipodi:nodetypes="ccccccccccccccccccc" /><path
       id="path1564"
       style="font-variation-settings:'wght' 700;opacity:1;fill:none;stroke:#000000;stroke-width:2.183;stop-color:#000000"
       d="m 297.57658,72.64406 c 0,2.340063 -3.61458,3.745805 -5.64942,3.745804 -2.03483,10e-7 -4.6669,-2.019807 -4.6669,-4.359871 0,-2.340063 2.26363,-4.851126 4.29846,-4.851125 2.03484,-10e-7 6.01786,3.125128 6.01786,5.465192 z"
       sodipodi:nodetypes="sssss" /><ellipse
       style="font-variation-settings:'wght' 700;opacity:1;fill:#000000;fill-opacity:1;stroke:none;stroke-width:1.483;stroke-dasharray:none;stroke-opacity:1;stop-color:#000000"
       id="path1567"
       cx="292.202"
       cy="71.926971"
       rx="2.019079"
       ry="1.5848684" /><path
       style="font-variation-settings:'wght' 700;opacity:1;fill:#000000;fill-opacity:1;fill-rule:nonzero;stroke:none;stroke-width:5.783;stroke-dasharray:none;stroke-opacity:1;stop-color:#000000"
       d="m 300.39495,64.33321 c 0.0265,0.09555 0.0438,0.252419 0.15898,0.573294 0.49433,1.376812 3.57584,7.421527 6.2428,13.390095 l -0.088,-0.529483 c 0.65995,3.898292 1.24343,7.751629 1.5741,10.934125 0.33537,3.227633 0.57074,6.363692 0.74082,9.503255 -1.65594,3.435314 -3.70244,7.086984 -5.99401,11.202474 -0.19728,0.10017 -0.39512,0.20064 -0.59353,0.30143 -6.24782,3.1738 -13.62816,6.60333 -21.2337,10.10887 -2.36404,-0.74327 -5.69967,-1.7983 -8.90952,-2.72732 -0.10546,-0.84137 -0.2258,-1.65148 -0.36366,-2.4241 -0.43606,-2.44393 -1.14504,-4.89797 -1.90265,-7.19284 l -0.74503,-2.2568 -0.78606,-0.59256 c -4.46276,-3.36422 -8.64823,-6.192422 -11.03314,-8.231099 -1.74105,-1.488283 -3.04169,-2.849869 -3.65003,-3.419842 l -4.82714,5.15205 c 0.60833,0.569974 2.05164,1.779293 3.65002,3.419841 1.88153,1.93117 4.43136,5.15125 7.42607,8.7061 0.0639,2.08813 0.21594,4.24854 0.55258,6.33663 0.28314,1.75625 0.71481,3.6646 1.24207,5.66675 l 1.09778,4.16857 3.35978,0.30028 c 4.53284,0.40513 9.59194,0.57931 14.53854,0.76152 l 1.71871,0.0633 0.72915,-0.47664 c 7.50239,-4.90429 14.84352,-9.68859 21.2533,-13.53572 0.3556,-0.21344 0.70924,-0.42578 1.06101,-0.63707 l 0.68699,-0.41262 0.21466,-0.55005 c 1.83292,-4.69672 3.41403,-8.82936 5.25062,-12.830218 l 0.15663,-0.341211 -0.0229,-0.351995 c -0.21251,-3.262848 -0.35546,-6.525961 -0.40263,-9.900096 -0.0447,-3.199318 0.083,-7.094487 0.28131,-11.043268 l -0.007,0.138023 -0.081,-0.667506 c -0.78784,-6.489669 -1.25955,-13.258109 -1.5449,-14.692876 -0.0665,-0.334383 -0.13248,-0.477746 -0.15898,-0.573295 l -1.32999,-4.796054 -9.59211,2.659991 z"
       id="path2295"
       inkscape:path-effect="#path-effect2297"
       inkscape:original-d="m 305.191,63.003214 4.05283,14.61478 1.22814,20.878257 -5.89504,12.526959 -23.08889,12.77258 -14.24634,-2.45627 -2.21064,-13.01821 -13.63227,-12.772576"
       sodipodi:nodetypes="cccccccc" /><path
       style="font-variation-settings:'wght' 700;opacity:1;fill:#000000;fill-opacity:1;fill-rule:nonzero;stroke:none;stroke-width:5.783;stroke-dasharray:none;stroke-opacity:1;stop-color:#000000"
       d="m 308.17431,104.70852 2.51757,3.73799 8.80357,13.69645 0.40217,1.61709 5.62796,18.09976 2.3586,14.29309 0.88107,7.56055 0.0319,0.27343 0.1512,0.27214 6.10937,10.99595 7.10926,13.51732 0.0784,0.14897 0.20028,0.23419 19.09808,22.332 0.0925,0.10813 0.26669,0.22746 2.17149,1.85209 19.42914,14.78182 2.08332,1.65626 3.31253,-4.16665 -2.08333,-1.65627 -18.78174,-15.59614 -2.17704,-1.61145 -20.12914,-20.69536 -7.84324,-12.74338 -6.20715,-10.62388 -1.04071,-7.22574 -1.40001,-14.61297 -0.006,-0.061 -0.0444,-0.19031 -4.32457,-18.5196 -0.57466,-1.94619 -0.13364,-0.45262 -0.20909,-0.29651 -9.6549,-13.69185 -2.51757,-3.738 -1.21161,-1.79895 -3.5979,2.42322 z"
       id="path2299"
       inkscape:path-effect="#path-effect2301"
       inkscape:original-d="m 309.97326,103.49691 11.87438,17.63062 5.51786,20.29761 2.87814,22.09574 13.78488,24.1906 19.79299,21.69811 21.33818,16.96403"
       sodipodi:nodetypes="ccccccc" /><path
       style="font-variation-settings:'wght' 700;opacity:1;fill:#000000;fill-opacity:1;fill-rule:nonzero;stroke:none;stroke-width:3.183;stroke-dasharray:none;stroke-opacity:1;stop-color:#000000"
       d="m 304.07644,221.94664 c 0.0902,0.32477 0.24259,0.99106 0.54129,1.94862 0.54002,1.73122 1.81417,5.09347 3.17557,8.92498 l 0.64201,1.80686 1.31097,-1.13944 c 1.78162,-1.5485 3.70785,-3.18555 5.59645,-4.68582 0.56452,-0.44845 1.14138,-0.9004 1.73025,-1.35633 0.0628,0.68546 0.15417,1.57531 0.28552,2.57301 0.14135,1.07362 0.33322,2.28591 0.59114,3.4351 0.12635,0.56296 0.27051,1.11959 0.43516,1.64205 0.1617,0.51311 0.34728,1.00647 0.56173,1.44593 0.13658,0.28495 0.31086,0.57469 0.50613,0.86103 0.19326,0.28341 0.41194,0.57056 0.64416,0.85454 0.45534,0.55682 0.96963,1.10976 1.45814,1.60576 0.93969,0.9541 1.79761,1.70547 1.79572,1.73334 l 1.40799,-0.15074 c 1.7203,-2.15095 3.4862,-4.37184 5.29145,-6.66777 0.38819,-0.49369 0.78453,-0.99802 1.18851,-1.51231 0.10057,0.64256 0.22906,1.37716 0.39105,2.16709 0.25454,1.24135 0.59997,2.63479 1.05949,3.92551 0.22548,0.63335 0.48303,1.25502 0.7774,1.82812 0.28956,0.56375 0.62461,1.09991 1.01451,1.55808 0.22001,0.2583 0.48126,0.48591 0.75271,0.68576 0.27041,0.19908 0.56569,0.38137 0.86785,0.54728 0.5954,0.32693 1.24838,0.60698 1.84882,0.83448 1.18384,0.44854 2.20767,0.70871 2.23134,0.71142 l 0.78981,0.0905 0.34028,-0.53851 c 1.75634,-2.77956 3.53147,-5.59048 5.29354,-8.38163 0.31065,0.77627 0.70609,1.72935 1.15914,2.7417 0.56946,1.27248 1.22967,2.64005 1.93614,3.89732 0.35771,0.63661 0.72882,1.24769 1.10807,1.80631 0.38221,0.56298 0.77854,1.08133 1.18449,1.52236 0.23989,0.25994 0.51879,0.51018 0.81078,0.7455 0.29713,0.23946 0.61919,0.47258 0.94726,0.69419 0.66854,0.45162 1.38969,0.87408 2.03225,1.22742 1.36975,0.75323 2.41782,1.22157 2.4326,1.22412 l 0.91902,0.15854 0.31497,-0.55905 c 1.64468,-2.91925 3.16524,-5.61699 4.52064,-8.01952 0.57789,-1.02435 1.15486,-2.0471 1.72792,-3.06295 2.28561,2.31687 4.47179,4.53273 6.38086,6.46797 l 0.79232,0.80319 0.63037,-0.93145 c 1.36317,-2.01425 2.48036,-3.66444 3.15574,-4.65991 0.50234,-0.74043 0.84252,-1.239 1.01102,-1.4868 l 0.51345,-0.75506 -1.51013,-1.02689 -0.51344,0.75507 c -0.16851,0.2478 -0.50711,0.74743 -1.01103,1.48679 -0.56957,0.8357 -1.4547,2.13192 -2.53755,3.71695 -1.95853,-1.99817 -4.16511,-4.24961 -6.44733,-6.57792 l -0.87287,-0.89051 -0.6165,1.0869 c -0.77663,1.3692 -1.56242,2.7546 -2.34985,4.14298 -1.23764,2.18219 -2.61418,4.60725 -4.098,7.22017 -0.39911,-0.20044 -0.92157,-0.47129 -1.50017,-0.79399 -0.61035,-0.34041 -1.27398,-0.73516 -1.87376,-1.14549 -0.29345,-0.20077 -0.56779,-0.40267 -0.81047,-0.60087 -0.24101,-0.19684 -0.44137,-0.38241 -0.59516,-0.5518 -0.32046,-0.35111 -0.65544,-0.78843 -0.99904,-1.29834 -0.33918,-0.50335 -0.67923,-1.06619 -1.01465,-1.66755 -0.66345,-1.18948 -1.29261,-2.50059 -1.8429,-3.74094 -1.07535,-2.42384 -1.82094,-4.52443 -1.81159,-4.51062 l -1.80784,-0.20269 c -1.98684,3.11868 -3.99764,6.27597 -5.98597,9.39992 -0.3569,-0.11131 -0.81422,-0.26296 -1.291,-0.44583 -0.54632,-0.20955 -1.10169,-0.4525 -1.58179,-0.71817 -0.24205,-0.13394 -0.45495,-0.26817 -0.63322,-0.40031 -0.18185,-0.1348 -0.31203,-0.25593 -0.39877,-0.35855 -0.2556,-0.30129 -0.50539,-0.69088 -0.74474,-1.15802 -0.24132,-0.47098 -0.4633,-1.00359 -0.66589,-1.57377 -0.41418,-1.16569 -0.73604,-2.45605 -0.97954,-3.64368 -0.51517,-2.51273 -0.68075,-4.48268 -0.68071,-4.45994 l -1.86969,-0.55337 c -0.94829,1.21328 -1.86016,2.38104 -2.72965,3.4958 -1.58066,2.02652 -3.11221,4.00953 -4.59906,5.94573 -0.29016,-0.24729 -0.63362,-0.55003 -0.98604,-0.87851 -0.48316,-0.45034 -0.9776,-0.94219 -1.40773,-1.42573 -0.21889,-0.24606 -0.41673,-0.48504 -0.58654,-0.71171 -0.17312,-0.2311 -0.31017,-0.44018 -0.41044,-0.62423 -0.178,-0.33795 -0.34602,-0.74529 -0.50239,-1.20399 -0.15822,-0.46416 -0.30144,-0.97176 -0.43026,-1.50007 -0.26344,-1.08038 -0.46427,-2.2362 -0.61364,-3.28331 -0.31425,-2.20294 -0.40485,-3.8894 -0.38487,-3.87848 l -1.23182,-0.57427 c -0.9932,0.72447 -1.9669,1.42249 -2.92261,2.09213 -1.44968,1.01575 -2.97575,2.03 -4.47234,2.99899 -0.65003,-3.27203 -1.17302,-6.0764 -1.54086,-7.5826 -0.23797,-0.97443 -0.45107,-1.62385 -0.54128,-1.94862 l -0.5143,-1.85145 -3.70289,1.02859 z"
       id="path2370"
       sodipodi:nodetypes="cccsccsccscccc"
       inkscape:path-effect="#path-effect2372"
       inkscape:original-d="m 305.92789,221.43235 3.07033,11.05319 8.71974,-6.5091 c 0,0 0.40593,7.10423 1.96501,10.1935 0.95289,1.88812 4.29847,4.66691 4.29847,4.66691 l 7.98285,-10.19351 c 0,0 0.7485,8.40092 3.31597,11.42164 1.23333,1.45105 5.15816,2.45626 5.15816,2.45626 l 6.3863,-10.07069 c 0,0 2.97466,8.35996 5.89502,11.54445 1.56618,1.70783 5.89505,3.6844 5.89505,3.6844 l 6.87753,-12.15851 7.24598,7.36879 4.17566,-6.14066" /><path
       style="font-variation-settings:'wght' 700;opacity:1;fill:#000000;fill-opacity:1;fill-rule:nonzero;stroke:none;stroke-width:3.183;stroke-dasharray:none;stroke-opacity:1;paint-order:markers stroke fill;stop-color:#000000"
       d="m 279.61648,140.63849 c 1.59238,-1.58434 5.99103,-6.12865 9.5543,-9.50601 1.0672,-1.01151 2.13581,-1.97432 3.23008,-2.93865 3.58859,4.19131 7.44397,8.73117 12.60261,14.30548 1.6549,1.78824 3.46344,3.71173 5.39912,5.74747 1.99939,4.87095 4.54467,10.84844 7.27772,17.18396 -1.73984,-0.72909 -3.49334,-1.46367 -5.22381,-2.19661 l -0.11346,-0.0481 0.002,6.9e-4 c -3.12855,-1.05818 -6.19965,-2.11352 -9.07845,-3.14534 -0.97972,-0.35116 -2.00622,-0.7207 -3.06836,-1.10442 l -0.3317,-0.11983 -0.30756,0.0674 c -2.78713,0.61095 -5.88378,1.27658 -8.97917,1.93491 -1.69696,-4.11956 -3.35834,-8.17084 -4.8012,-11.69814 l -0.0335,-0.0819 -0.041,-0.0642 c -2.22028,-3.47499 -4.00141,-6.275 -4.85794,-7.62683 -0.60104,-0.9486 -0.92782,-1.48615 -1.11339,-1.78338 z m -1.35763,-0.14705 c 0.18739,0.29609 0.5301,0.82363 1.12431,1.77653 0.84071,1.34821 2.57261,4.1366 4.71981,7.609 1.48293,3.75536 3.19359,8.09925 4.91526,12.49317 l 0.30397,0.77578 0.83947,-0.15762 c 3.25352,-0.6109 6.54137,-1.22096 9.50691,-1.75864 0.94674,0.37325 1.86293,0.73556 2.74024,1.08378 2.81005,1.11538 5.77635,2.33774 8.78789,3.59593 3.13057,1.65062 6.31709,3.3607 9.36793,4.97054 l 4.55809,2.40517 -1.91255,-4.91441 c -3.15137,-8.09766 -6.16278,-15.7483 -8.82505,-22.21457 l -0.16043,-0.38965 -0.28932,-0.30343 c -2.04723,-2.14711 -3.97889,-4.14977 -5.76986,-5.97608 -5.74141,-5.85468 -10.35202,-10.13354 -14.63084,-14.18131 l -1.10478,-1.04513 -0.86703,1.02956 c -1.27378,1.51256 -2.51552,2.96401 -3.84445,4.41439 -3.3167,3.6198 -7.78608,8.09457 -9.34329,9.71348 z"
       id="path2374"
       inkscape:path-effect="#path-effect2376"
       inkscape:original-d="m 278.9958,140.02821 13.54544,-13.77616 19.77292,20.75545 9.0882,22.10639 -9.57945,-4.54409 -12.03568,-4.54409 -9.82507,1.96501 -5.03534,-12.52696 z"
       sodipodi:nodetypes="ccccccccc" /><path
       style="font-variation-settings:'wght' 700;opacity:1;fill:#000000;fill-opacity:1;fill-rule:nonzero;stroke:none;stroke-width:1.8;stroke-dasharray:none;stroke-opacity:1;paint-order:markers stroke fill;stop-color:#000000"
       d="m 283.20734,136.35621 c 0.24824,0.30784 0.74269,0.95102 1.48946,1.84702 1.06194,1.27414 3.62001,4.22224 6.1702,7.16243 2.54076,4.61515 5.06179,9.19651 6.16086,11.26103 0.8453,1.58781 1.42287,2.7487 1.70744,3.29844 l 0.13566,0.26207 0.52414,-0.27132 -0.13566,-0.26207 c -0.28457,-0.54974 -0.899,-1.69155 -1.70743,-3.29845 -1.05627,-2.09949 -3.35865,-6.83859 -5.6714,-11.601 l -0.0177,-0.0364 -0.0472,-0.063 c -2.34147,-3.1265 -4.69387,-6.26911 -5.71777,-7.58166 -0.71742,-0.91967 -1.24122,-1.53918 -1.48947,-1.84701 l -0.56496,-0.70059 -1.40117,1.12993 z"
       id="path2479"
       sodipodi:nodetypes="ccc"
       inkscape:original-d="m 283.90792,135.79125 7.44733,9.23506 7.64212,14.76316"
       inkscape:path-effect="#path-effect2481" /><path
       style="font-variation-settings:'wght' 700;opacity:1;fill:#000000;fill-opacity:1;fill-rule:nonzero;stroke:none;stroke-width:1.8;stroke-dasharray:none;stroke-opacity:1;paint-order:markers stroke fill;stop-color:#000000"
       d="m 287.97032,131.54565 c 0.0455,0.0538 0.1073,0.13157 0.27292,0.32281 0.78735,0.90914 6.17519,6.95704 11.43106,12.86692 3.88459,6.93571 7.66851,13.70194 8.87354,15.91008 0.71494,1.31008 1.11445,2.09131 1.33734,2.50957 l 0.18181,0.34118 0.68236,-0.36362 -0.18181,-0.34118 c -0.22289,-0.41827 -0.64857,-1.18555 -1.33734,-2.50957 -1.16554,-2.24056 -4.69522,-9.20108 -8.30104,-16.32297 l -0.0277,-0.0546 -0.06,-0.0747 c -4.9657,-6.18085 -10.05772,-12.53013 -10.82524,-13.46014 -0.16103,-0.19512 -0.22743,-0.26901 -0.27292,-0.32281 l -0.74951,-0.88652 -1.77304,1.49902 z"
       id="path2483"
       sodipodi:nodetypes="ccc"
       inkscape:path-effect="#path-effect2485"
       inkscape:original-d="m 288.85684,130.79614 11.42164,13.50947 9.94788,18.66761" /><path
       style="font-variation-settings:'wght' 700;opacity:1;fill:#000000;fill-opacity:1;fill-rule:nonzero;stroke:none;stroke-width:3;stroke-dasharray:none;stroke-opacity:1;paint-order:markers stroke fill;stop-color:#000000"
       d="m 336.77367,81.952802 c -0.10856,0 -0.19317,-0.0074 -0.21608,-0.0093 -0.031,-0.0026 -0.0439,-0.0039 -0.046,-0.0034 -0.003,7.95e-4 0.0247,0.0065 0.0789,0.01767 0.11995,0.02474 0.20698,0.04253 0.47703,0.09888 0.19095,0.03984 1.52488,0.319948 1.71583,0.359791 -0.0727,-0.01526 0.81961,0.171802 0.74686,0.156539 -19.73733,-4.132637 24.03127,5.032818 4.29394,0.90018 2.63205,0.553734 7.17421,1.518642 7.19045,1.44051 l -0.0123,0.05916 -0.54047,-0.26575 c 3.38525,1.664548 7.2689,3.567488 11.24388,5.514041 -1.09123,0.828125 -2.14244,1.624617 -3.09881,2.346082 l -0.42608,0.321428 -0.11169,0.368975 c -1.07722,3.558688 -1.95787,6.433423 -2.4264,7.873618 -0.50792,1.56129 -0.86373,2.49075 -1.03647,2.9889 l -0.35097,1.0121 2.0242,0.70194 0.35097,-1.0121 c 0.17275,-0.49815 0.46876,-1.44835 1.03648,-2.9889 0.49845,-1.35259 1.5083,-3.956933 2.7748,-7.189686 1.73491,-0.982747 3.73503,-2.107944 5.73365,-3.232457 l 2.70587,-1.522446 -2.8551,-1.624527 c -4.71007,-2.67999 -9.41664,-5.35781 -13.41441,-7.623671 l -0.53293,-0.302052 -0.0198,0.09546 c 0.0175,-0.08407 -4.49343,-1.213777 -7.11679,-1.85949 -1.85988,-0.457791 -3.35887,-0.818333 -4.29596,-1.037362 -0.27218,-0.06362 -0.52393,-0.121747 -0.75593,-0.17467 -0.82551,-0.188306 -1.39563,-0.309497 -1.7928,-0.387864 -0.26404,-0.0521 -0.45782,-0.08652 -0.60879,-0.110596 -0.0935,-0.01491 -0.18034,-0.02741 -0.26139,-0.03752 -0.0473,-0.0059 -0.10263,-0.01224 -0.161,-0.01757 -0.0586,-0.0054 -0.16569,-0.0141 -0.29271,-0.0141 l -2.57912,0 0,5.158236 z"
       id="path2510"
       inkscape:path-effect="#path-effect2512"
       inkscape:original-d="m 336.77367,79.373684 c 0.60791,0 14.76317,3.3 14.76317,3.3 l 13.63422,7.207895 -5.81843,3.821052 -3.73422,10.768419" /><path
       style="font-variation-settings:'wght' 700;opacity:1;fill:#000000;fill-opacity:1;fill-rule:nonzero;stroke:none;stroke-width:3;stroke-dasharray:none;stroke-opacity:1;paint-order:markers stroke fill;stop-color:#000000"
       d="m 243.89365,131.3544 c -0.42577,0.55618 -1.42286,1.73758 -2.55463,3.33706 -1.07028,1.51258 -2.63831,3.97033 -4.403,6.75247 l -0.33558,0.52906 -0.0411,0.2119 c -0.69157,3.5649 -1.46761,7.62303 -2.25321,11.08528 l -0.061,0.26862 0.008,0.12156 c 0.0678,1.06819 0.12615,2.09837 0.17224,3.07466 0.17948,3.80163 0.26816,8.16703 0.31925,12.21164 l 0.0301,2.3827 1.74943,-1.62771 c 4.14198,-3.85379 7.93125,-7.31706 10.06652,-9.31867 1.59987,-1.49971 2.80892,-2.62853 3.37071,-3.15423 l 0.82602,-0.77298 -1.54595,-1.65204 -0.82602,0.77297 c -0.56179,0.52571 -1.76825,1.65729 -3.37071,3.15424 -1.83316,1.71246 -4.81834,4.56624 -8.22821,7.78838 -0.0524,-3.3304 -0.0769,-6.75803 -0.0308,-9.82221 0.0135,-0.89555 0.0358,-1.83666 0.0652,-2.81105 1.10647,-3.01794 2.55257,-6.59791 3.85082,-9.81859 2.16756,-2.36733 4.07369,-4.46245 5.22976,-5.8605 1.24865,-1.51001 2.12886,-2.78089 2.55463,-3.33706 l 1.75775,-2.29611 -4.59222,-3.5155 z"
       id="path2514"
       inkscape:path-effect="#path-effect2516"
       inkscape:original-d="m 246.18976,133.11215 -7.44074,9.71969 -3.19314,10.80757 0.24562,15.29025 13.38665,-12.52695"
       sodipodi:nodetypes="ccccc" /><path
       style="font-variation-settings:'wght' 700;opacity:1;fill:#000000;fill-opacity:1;fill-rule:nonzero;stroke:none;stroke-width:8;stroke-dasharray:none;stroke-opacity:1;paint-order:markers stroke fill;stop-color:#000000"
       d="m 272.22738,75.920211 -0.002,0.14194 0.84177,5.143178 0.15974,0.976045 -0.0309,-0.06144 2.40654,4.789397 0.6119,2.037491 4.07499,-1.223807 -0.61191,-2.037492 -0.63038,-5.322815 0.12887,0.914602 0.96272,-5.121916 0.002,-0.14194 0.0466,-3.956688 -7.91338,-0.09324 z"
       id="path2518"
       inkscape:path-effect="#path-effect2520"
       inkscape:original-d="m 276.18407,75.966831 -0.0622,5.274487 1.51846,5.056106"
       sodipodi:nodetypes="ccc" /><path
       style="font-variation-settings:'wght' 700;opacity:1;fill:#000000;fill-opacity:1;fill-rule:nonzero;stroke:none;stroke-width:5.783;stroke-dasharray:none;stroke-opacity:1;stop-color:#000000"
       d="m 387.95385,229.70871 3.72326,-4.35187 9.79027,-10.36169 9.12298,-4.19168 13.48065,-7.02181 15.21968,-1.63028 -4.62893,5.21332 -8.71282,10.28832 -3.20412,3.57848 -0.26114,0.29166 -0.10626,0.31467 -1.49435,4.42536 c -0.47752,0.48143 -1.40736,1.41557 -2.43576,2.54429 -0.74193,0.81431 -1.54358,1.7395 -2.26034,2.67092 -0.35886,0.46633 -0.70169,0.941 -1.00761,1.40984 -0.30455,0.46674 -0.58247,0.94285 -0.80432,1.41116 -1.48621,3.14307 -2.26516,6.67978 -2.29858,10.13939 -0.0272,0.45937 -0.0414,0.9192 -0.0421,1.37838 0.0152,2.46889 0.3972,4.92954 1.03287,7.31636 0.63554,2.38639 1.52582,4.70347 2.56178,6.89004 0.39717,0.81615 0.9555,1.66698 1.59041,2.51135 0.64034,0.85157 1.38907,1.73661 2.1931,2.62298 0.69565,0.76691 1.43971,1.54251 2.20145,2.30715 1.01693,0.99154 2.0694,1.96895 3.0896,2.88832 0.51574,0.46476 1.0239,0.91534 1.5161,1.34627 l -10.24933,-1.06372 -13.57274,-8.27874 -4.95595,-5.48313 -5.97537,-6.92022 -6.20422,-10.38945 -1.79944,-2.84911 -1.40578,-2.22582 -4.45164,2.81156 1.40578,2.22582 1.79944,2.84912 6.79606,10.18752 0.14237,0.21342 0.0989,0.10453 6.4603,6.82572 5.16273,5.70868 0.20564,0.22739 0.26127,0.15926 14.24335,8.68216 0.40695,0.24806 0.47347,0.049 17.57064,1.81875 7.00944,0.72555 -5.4861,-4.47309 c 0.0205,0.0167 -3.1549,-2.4936 -6.63363,-5.62743 -0.98909,-0.89103 -2.00007,-1.82993 -2.96935,-2.77469 -0.74757,-0.70671 -1.46791,-1.4138 -2.13471,-2.1036 -0.77408,-0.80078 -1.46495,-1.56685 -2.03893,-2.27368 -0.5807,-0.71512 -1.00603,-1.32594 -1.28165,-1.8234 -1.07486,-1.94123 -2.01207,-3.99455 -2.71788,-6.10459 -0.70565,-2.10953 -1.17885,-4.27213 -1.32958,-6.43637 -0.0314,-0.39917 -0.0513,-0.8016 -0.0595,-1.20627 0.1101,-3.05526 0.88068,-6.13573 2.23472,-8.81282 0.1523,-0.29807 0.3604,-0.6403 0.62153,-1.02021 0.25957,-0.37764 0.56066,-0.77678 0.89075,-1.1869 0.66114,-0.82145 1.41558,-1.65846 2.13694,-2.41514 1.43718,-1.50754 2.70711,-2.65687 2.70507,-2.62188 l 0.44385,-0.66582 1.72569,-4.27382 3.01694,-3.30771 9.3566,-9.70654 9.0209,-9.80796 4.22509,-4.59372 -6.2724,0.51365 -22.08393,1.80845 -0.48484,0.0397 -0.49231,0.24329 -14.0623,6.94942 -9.10331,5.07414 -0.52641,0.29341 -0.23792,0.30759 -9.09342,11.75625 -3.72327,4.35187 -1.14029,1.33281 2.66562,2.28058 z"
       id="path2303"
       sodipodi:nodetypes="ccccccsssccccc"
       inkscape:path-effect="#path-effect2305"
       inkscape:original-d="m 386.62104,228.56842 13.37368,-15.63158 23.27371,-11.81053 22.05788,-2.08421 -21.18947,23.44737 -1.73686,4.68947 c 0,0 -5.1046,4.75128 -6.59997,7.81579 -1.60835,3.29606 -2.38921,7.10325 -2.25791,10.76843 0.16598,4.63331 1.71026,9.24577 3.82106,13.37368 2.68402,5.24889 15.48618,15.3685 15.48618,15.3685 l -17.5704,-1.82113 -14.2421,-8.68421 -11.46315,-12.67895 -8.33684,-13.2" /><path
       style="font-variation-settings:'wght' 700;opacity:1;fill:#000000;fill-opacity:1;fill-rule:nonzero;stroke:none;stroke-width:2;stroke-dasharray:none;stroke-opacity:1;paint-order:markers stroke fill;stop-color:#000000"
       d="m 390.86337,231.64697 c 0.53926,-0.22947 1.63856,-0.66337 3.23554,-1.37682 2.1569,-0.96358 7.41769,-3.43904 12.809,-5.983 7.17453,-1.51774 14.48148,-3.07134 16.56639,-3.4698 0.88957,-0.17001 1.36955,-0.2379 1.64346,-0.28548 l 0.64766,-0.11251 -0.22501,-1.29531 -0.64765,0.1125 c -0.27391,0.0476 -0.74867,0.14554 -1.64347,0.28549 -2.11532,0.33084 -9.62869,1.34703 -16.95493,2.3461 l -0.0961,0.0131 -0.17891,0.0681 c -5.60323,2.13305 -11.08222,4.22537 -13.28406,5.11631 -1.62141,0.65608 -2.69629,1.14736 -3.23554,1.37683 l -1.60225,0.6818 1.36361,3.20449 z"
       id="path2553"
       inkscape:path-effect="#path-effect2563"
       inkscape:original-d="m 390.18157,230.04473 16.32632,-6.94736 18.49737,-3.21316" /><path
       style="font-variation-settings:'wght' 700;opacity:1;fill:#000000;fill-opacity:1;fill-rule:nonzero;stroke:none;stroke-width:2;stroke-dasharray:none;stroke-opacity:1;paint-order:markers stroke fill;stop-color:#000000"
       d="m 400.19127,240.4399 c 0,0 -0.23346,-0.19658 0,0 1.03558,0.872 3.79531,3.18005 6.45941,5.41569 l 0.24466,0.20532 0.17511,0.0475 c 2.37491,0.6445 4.66793,1.27275 5.32436,1.47675 0.29027,0.0902 0.43743,0.15243 0.52491,0.18292 l 0.78916,0.27501 0.55002,-1.57832 -0.78916,-0.27501 c -0.0875,-0.0305 -0.24145,-0.0732 -0.52491,-0.18292 -0.61276,-0.2372 -2.63796,-1.10008 -4.79031,-2.02389 -2.38569,-2.45502 -4.82161,-4.96973 -5.75105,-5.92287 -0.21307,-0.2185 0,0 0,0 l -1.18989,-1.1061 -2.21221,2.37979 z"
       id="path2557"
       inkscape:path-effect="#path-effect2602"
       inkscape:original-d="m 401.29737,239.25 6.16577,5.73158 5.73159,1.99736" /><path
       style="font-variation-settings:'wght' 700;opacity:1;fill:#000000;fill-opacity:1;fill-rule:nonzero;stroke:none;stroke-width:2;stroke-dasharray:none;stroke-opacity:1;paint-order:markers stroke fill;stop-color:#000000"
       d="m 399.19085,237.98139 c 0.45851,-0.12505 1.45687,-0.36651 2.75107,-0.75029 1.46495,-0.43443 4.48563,-1.41415 7.57771,-2.42153 2.25879,-0.11919 4.51238,-0.24118 5.40614,-0.24991 0.56143,-0.005 0.92832,0.0238 1.11399,0.0286 l 0.80928,0.0207 0.0415,-1.61856 -0.80928,-0.0207 c -0.18566,-0.005 -0.55358,0.006 -1.11399,-0.0286 -0.9269,-0.0567 -3.3135,-0.31063 -5.64919,-0.55408 l -0.10833,-0.0113 -0.24355,0.0538 c -3.20675,0.70878 -6.3514,1.40788 -7.8481,1.78085 -1.30985,0.32641 -2.29256,0.62524 -2.75107,0.75029 l -1.51034,0.41191 0.82382,3.02068 z"
       id="path2559"
       inkscape:path-effect="#path-effect2604"
       inkscape:original-d="m 398.77894,236.47105 10.5079,-2.86579 6.77367,0.17369" /><path
       style="font-variation-settings:'wght' 700;opacity:1;fill:#000000;fill-opacity:1;fill-rule:nonzero;stroke:none;stroke-width:2;stroke-dasharray:none;stroke-opacity:1;paint-order:markers stroke fill;stop-color:#000000"
       d="m 389.67641,240.34403 c 0,0 -0.10856,-0.14297 0,0 1.20826,1.59131 4.41101,5.7699 7.43493,9.73742 l 0.16426,0.21552 0.15484,0.098 c 7.83485,4.96028 15.29466,9.69543 18.32003,11.65911 2.10665,1.36736 3.45416,2.29377 4.14499,2.75253 l 0.63295,0.42032 0.84064,-1.2659 -0.63295,-0.42032 c -0.69083,-0.45875 -2.06745,-1.34133 -4.14499,-2.75253 -2.95496,-2.0072 -10.10307,-6.96888 -17.63431,-12.20985 -2.60364,-4.18832 -5.31487,-8.57531 -6.35953,-10.2487 -0.0951,-0.15228 0,0 0,0 l -1.00719,-1.46043 -2.92086,2.01438 z"
       id="path2561"
       inkscape:path-effect="#path-effect2565"
       inkscape:original-d="m 391.13684,239.33684 6.94735,10.07368 22.23159,14.76316" /><g
       id="g7996"
       transform="rotate(56.330831,455.261,111.47065)"
       clip-path="url(#clipPath9640)"><path
         d="m 322.26532,114.16267 c 1.12044,0.93236 2.14505,1.99247 3.18653,3.07121 1.66248,1.72457 3.37818,3.49349 5.57736,4.79401 -0.8339,0.48969 -1.59682,1.0468 -2.31187,1.6465 -0.74873,-0.69639 -1.47263,-1.44157 -2.17523,-2.16813 -3.21493,-3.32936 -6.53631,-6.77051 -13.16842,-6.7714 v 1.51698 c 5.98987,8.8e-4 8.95018,3.06146 12.07816,6.30477 0.684,0.7097 1.39102,1.43626 2.12644,2.12999 -0.53838,0.51447 -1.06632,1.03975 -1.5835,1.57553 -3.05349,-3.14042 -6.36156,-6.20365 -12.6211,-6.20454 v 1.51521 c 5.65983,0.002 8.61042,2.73677 11.56631,5.77783 -0.54091,0.56439 -1.09644,1.11459 -1.66602,1.65004 -2.11757,-1.7707 -5.13377,-3.61946 -9.90029,-3.61946 v 1.51432 c 4.15086,8.9e-4 6.76874,1.49658 8.74703,3.11734 -0.8605,0.70349 -1.78224,1.33069 -2.81484,1.8328 -1.80531,-0.76558 -3.74989,-1.14173 -5.93219,-1.14173 v 1.51344 c 1.32536,0 2.54781,0.15168 3.69929,0.4542 -1.10002,0.29452 -2.31538,0.45864 -3.69929,0.45864 v 1.51698 c 6.63302,-8.8e-4 9.95349,-3.44291 13.16668,-6.76874 3.12887,-3.24154 6.08921,-6.30389 12.07816,-6.30389 5.98896,0 8.94574,3.06235 12.07551,6.30389 3.21316,3.3267 6.58559,6.76874 13.22038,6.76874 h 0.003 v -1.51698 h -0.007 c -1.38391,0 -2.65478,-0.165 -3.7539,-0.45864 1.14793,-0.30162 2.42678,-0.4542 3.75303,-0.4542 h 0.007 v -1.51344 h -0.003 c -2.18763,0 -4.1824,0.37881 -5.98502,1.14173 -1.03262,-0.50299 -1.95698,-1.12931 -2.81659,-1.8328 1.97827,-1.62076 4.65079,-3.11734 8.80074,-3.11734 h 0.003 v -1.51521 h -0.003 c -4.76827,0 -7.84001,1.84877 -9.95401,3.62035 -0.57036,-0.53522 -1.12648,-1.08543 -1.66777,-1.65004 2.95411,-3.0384 5.95929,-5.77783 11.62178,-5.77783 h 0.003 v -1.51343 h -0.003 c -6.25598,0 -9.62134,3.05968 -12.67747,6.20098 -0.5158,-0.53685 -1.04407,-1.06158 -1.58438,-1.57375 0.72519,-0.69313 1.43419,-1.40303 2.1264,-2.1291 3.12977,-3.24509 6.08921,-6.30566 12.08172,-6.30566 l 0.0567,-0.008 0.004,-1.51506 c -6.6348,0 -10.01554,3.44779 -13.22956,6.77716 -0.7035,0.72656 -1.42471,1.47263 -2.17344,2.16813 -0.72545,-0.61312 -1.50049,-1.16503 -2.31716,-1.65005 2.20182,-1.29609 3.91662,-3.06944 5.58264,-4.79401 1.04149,-1.07785 2.06701,-2.1353 3.18653,-3.06767 h -2.27457 c -0.49607,0.4743 -0.98231,0.95877 -1.45841,1.45311 -0.47572,-0.49413 -0.96138,-0.9786 -1.45668,-1.45311 h -2.2737 c 0.93858,0.7789 1.80709,1.64472 2.67646,2.54161 -0.54205,0.56412 -1.09724,1.11547 -1.66511,1.65359 -2.11757,-1.77158 -5.1338,-3.62123 -9.90029,-3.62123 -4.76829,0 -7.78541,1.84965 -9.90296,3.62123 -0.56826,-0.53832 -1.12404,-1.08967 -1.66691,-1.65359 0.86939,-0.896 1.73611,-1.7636 2.67559,-2.54161 h -2.27193 c -0.4955,0.4743 -0.98115,0.95877 -1.45666,1.45311 -0.47661,-0.49415 -0.96315,-0.97861 -1.45932,-1.45311 z m 16.35144,2.08917 c 4.14996,0 6.76873,1.49391 8.74702,3.11469 -0.85785,0.70082 -1.77691,1.32181 -2.80953,1.82835 -1.65979,-0.70614 -3.59284,-1.1364 -5.93749,-1.13729 -2.35089,0 -4.28038,0.43115 -5.94017,1.13729 -1.03264,-0.503 -1.94992,-1.12842 -2.80776,-1.82481 1.97828,-1.62343 4.59529,-3.11823 8.74793,-3.11823 z m 10e-4,9.12848 c -6.63479,0 -9.95708,3.44114 -13.1711,6.76698 -1.89311,1.9632 -3.69044,3.81994 -6.13534,5.01311 -1.07762,-0.45335 -2.20771,-0.77014 -3.36396,-0.94301 l -0.11898,-0.0194 c -0.2394,-0.0364 -0.48526,-0.0657 -0.73365,-0.0896 l -0.12671,-0.01 c -0.20587,-0.0177 -0.41251,-0.0329 -0.62363,-0.0461 l -0.20756,-0.008 c -0.25441,-0.0128 -0.50909,-0.0193 -0.76382,-0.0194 v 1.51521 c 0.23236,0 0.46129,0.007 0.68751,0.0167 l 0.18709,0.008 c 0.18811,0.01 0.37613,0.0248 0.5642,0.04 0.0366,0.004 0.0792,0.004 0.11533,0.008 0.22161,0.0211 0.43821,0.048 0.65381,0.0781 0.0416,0.008 0.0841,0.0151 0.12672,0.0211 0.1968,0.0302 0.39034,0.0639 0.58109,0.10295 l 0.0738,0.0127 c 0.21895,0.0461 0.43644,0.0976 0.652,0.15168 0.0167,0.007 0.0335,0.008 0.047,0.0151 0.44534,0.11532 0.87822,0.25814 1.30053,0.42138 h 0.007 c 0.54678,0.2111 1.07724,0.46225 1.58707,0.7514 h 0.003 c 0.76646,0.42937 1.51695,0.9572 2.29851,1.60834 h 2.27813 c -0.0426,-0.0389 -0.0841,-0.0816 -0.12503,-0.12067 0.73896,-0.69372 1.44068,-1.42205 2.12554,-2.13087 3.13242,-3.2442 6.09277,-6.30565 12.0826,-6.30565 5.98807,0 8.94487,3.06323 12.07373,6.30388 0.69253,0.72927 1.40274,1.44155 2.12999,2.1362 -0.0426,0.0399 -0.0862,0.0781 -0.12502,0.11715 h 2.27279 c 2.24799,-1.87182 4.94709,-3.23446 8.94271,-3.23446 h 0.003 v -1.51697 h -10e-4 c -2.34733,0 -4.33408,0.4338 -5.99477,1.13552 -2.44494,-1.19674 -4.24136,-3.04993 -6.13712,-5.01313 -3.21138,-3.32848 -6.53455,-6.76696 -13.16491,-6.76696 z m -10e-4,1.51521 c 5.98894,0 8.94574,3.06324 12.07906,6.30477 1.66334,1.72279 3.37637,3.49528 5.57823,4.7949 -0.83212,0.49146 -1.59683,1.04857 -2.31363,1.65004 -0.75139,-0.69904 -1.47616,-1.44777 -2.17789,-2.17521 -3.21138,-3.32582 -6.53454,-6.76875 -13.1649,-6.76875 -6.63389,0 -9.95793,3.44293 -13.16934,6.76875 -0.7026,0.7301 -1.42735,1.47528 -2.17787,2.17255 -0.72371,-0.61213 -1.49697,-1.16315 -2.31183,-1.64738 2.19827,-1.29962 3.91307,-3.06945 5.57732,-4.794 3.13155,-3.24421 6.08921,-6.30567 12.08085,-6.30567 z m -9.1e-4,9.12937 c -5.28103,0 -8.46136,2.18233 -11.16087,4.75143 h 2.2675 c 2.24795,-1.87183 4.89691,-3.23622 8.89515,-3.23622 3.99562,0 6.64012,1.36439 8.8872,3.23622 h 2.27103 c -2.69507,-2.56822 -5.87986,-4.75143 -11.16001,-4.75143 z"
         stroke-width="0.264583"
         stroke="none"
         fill="hsla(259, 0%, 0%, 1)"
         id="path423"
         style="stroke-width:8.6002;stroke-dasharray:none"
         inkscape:tile-cx="336.02167"
         inkscape:tile-cy="105.67059"
         inkscape:tile-w="50.49068"
         inkscape:tile-h="26.613664"
         inkscape:tile-x0="310.77633"
         inkscape:tile-y0="92.363756"
         sodipodi:nodetypes="ccccccccccccccccccccccccscsccscsccsccsccsccsccscccscccccccccccccscccccccscccccscccccccccccscccccccccccccccccsccccsccsccccsccccsccccssccsccs" /><use
         x="0"
         y="0"
         inkscape:tiled-clone-of="#path423"
         xlink:href="#path423"
         id="use7507" /><use
         x="0"
         y="0"
         inkscape:tiled-clone-of="#path423"
         xlink:href="#path423"
         transform="translate(4.40574e-8,26.613664)"
         id="use7509" /><use
         x="0"
         y="0"
         inkscape:tiled-clone-of="#path423"
         xlink:href="#path423"
         transform="translate(4.4057398e-8,53.227328)"
         id="use7511" /><use
         x="0"
         y="0"
         inkscape:tiled-clone-of="#path423"
         xlink:href="#path423"
         transform="translate(4.4057397e-8,79.840992)"
         id="use7513" /><use
         x="0"
         y="0"
         inkscape:tiled-clone-of="#path423"
         xlink:href="#path423"
         transform="translate(4.4057395e-8,106.45466)"
         id="use7515" /><use
         x="0"
         y="0"
         inkscape:tiled-clone-of="#path423"
         xlink:href="#path423"
         transform="translate(4.4057393e-8,133.06832)"
         id="use7517" /><use
         x="0"
         y="0"
         inkscape:tiled-clone-of="#path423"
         xlink:href="#path423"
         transform="translate(4.4057392e-8,159.68198)"
         id="use7519" /><use
         x="0"
         y="0"
         inkscape:tiled-clone-of="#path423"
         xlink:href="#path423"
         transform="translate(4.4057391e-8,186.29565)"
         id="use7521" /><use
         x="0"
         y="0"
         inkscape:tiled-clone-of="#path423"
         xlink:href="#path423"
         transform="translate(50.49068)"
         id="use7523" /><use
         x="0"
         y="0"
         inkscape:tiled-clone-of="#path423"
         xlink:href="#path423"
         transform="translate(50.49068,26.613664)"
         id="use7525" /><use
         x="0"
         y="0"
         inkscape:tiled-clone-of="#path423"
         xlink:href="#path423"
         transform="translate(50.49068,53.227328)"
         id="use7527" /><use
         x="0"
         y="0"
         inkscape:tiled-clone-of="#path423"
         xlink:href="#path423"
         transform="translate(50.49068,79.840992)"
         id="use7529" /><use
         x="0"
         y="0"
         inkscape:tiled-clone-of="#path423"
         xlink:href="#path423"
         transform="translate(50.49068,106.45466)"
         id="use7531" /><use
         x="0"
         y="0"
         inkscape:tiled-clone-of="#path423"
         xlink:href="#path423"
         transform="translate(50.49068,133.06832)"
         id="use7533" /><use
         x="0"
         y="0"
         inkscape:tiled-clone-of="#path423"
         xlink:href="#path423"
         transform="translate(50.49068,159.68198)"
         id="use7535" /><use
         x="0"
         y="0"
         inkscape:tiled-clone-of="#path423"
         xlink:href="#path423"
         transform="translate(50.49068,186.29565)"
         id="use7537" /><use
         x="0"
         y="0"
         inkscape:tiled-clone-of="#path423"
         xlink:href="#path423"
         transform="translate(100.98136)"
         id="use7539" /><use
         x="0"
         y="0"
         inkscape:tiled-clone-of="#path423"
         xlink:href="#path423"
         transform="translate(100.98136,26.613664)"
         id="use7541" /><use
         x="0"
         y="0"
         inkscape:tiled-clone-of="#path423"
         xlink:href="#path423"
         transform="translate(100.98136,53.227328)"
         id="use7543" /><use
         x="0"
         y="0"
         inkscape:tiled-clone-of="#path423"
         xlink:href="#path423"
         transform="translate(100.98136,79.840992)"
         id="use7545" /><use
         x="0"
         y="0"
         inkscape:tiled-clone-of="#path423"
         xlink:href="#path423"
         transform="translate(100.98136,106.45466)"
         id="use7547" /><use
         x="0"
         y="0"
         inkscape:tiled-clone-of="#path423"
         xlink:href="#path423"
         transform="translate(100.98136,133.06832)"
         id="use7549" /><use
         x="0"
         y="0"
         inkscape:tiled-clone-of="#path423"
         xlink:href="#path423"
         transform="translate(100.98136,159.68198)"
         id="use7551" /><use
         x="0"
         y="0"
         inkscape:tiled-clone-of="#path423"
         xlink:href="#path423"
         transform="translate(100.98136,186.29565)"
         id="use7553" /><use
         x="0"
         y="0"
         inkscape:tiled-clone-of="#path423"
         xlink:href="#path423"
         transform="translate(151.47204)"
         id="use7555" /><use
         x="0"
         y="0"
         inkscape:tiled-clone-of="#path423"
         xlink:href="#path423"
         transform="translate(151.47204,26.613664)"
         id="use7557" /><use
         x="0"
         y="0"
         inkscape:tiled-clone-of="#path423"
         xlink:href="#path423"
         transform="translate(151.47204,53.227328)"
         id="use7559" /><use
         x="0"
         y="0"
         inkscape:tiled-clone-of="#path423"
         xlink:href="#path423"
         transform="translate(151.47204,79.840992)"
         id="use7561" /><use
         x="0"
         y="0"
         inkscape:tiled-clone-of="#path423"
         xlink:href="#path423"
         transform="translate(151.47204,106.45466)"
         id="use7563" /><use
         x="0"
         y="0"
         inkscape:tiled-clone-of="#path423"
         xlink:href="#path423"
         transform="translate(151.47204,133.06832)"
         id="use7565" /><use
         x="0"
         y="0"
         inkscape:tiled-clone-of="#path423"
         xlink:href="#path423"
         transform="translate(151.47204,159.68198)"
         id="use7567" /><use
         x="0"
         y="0"
         inkscape:tiled-clone-of="#path423"
         xlink:href="#path423"
         transform="translate(151.47204,186.29565)"
         id="use7569" /><use
         x="0"
         y="0"
         inkscape:tiled-clone-of="#path423"
         xlink:href="#path423"
         transform="translate(201.96272)"
         id="use7571" /><use
         x="0"
         y="0"
         inkscape:tiled-clone-of="#path423"
         xlink:href="#path423"
         transform="translate(201.96272,26.613664)"
         id="use7573" /><use
         x="0"
         y="0"
         inkscape:tiled-clone-of="#path423"
         xlink:href="#path423"
         transform="translate(201.96272,53.227328)"
         id="use7575" /><use
         x="0"
         y="0"
         inkscape:tiled-clone-of="#path423"
         xlink:href="#path423"
         transform="translate(201.96272,79.840992)"
         id="use7577" /><use
         x="0"
         y="0"
         inkscape:tiled-clone-of="#path423"
         xlink:href="#path423"
         transform="translate(201.96272,106.45466)"
         id="use7579" /><use
         x="0"
         y="0"
         inkscape:tiled-clone-of="#path423"
         xlink:href="#path423"
         transform="translate(201.96272,133.06832)"
         id="use7581" /><use
         x="0"
         y="0"
         inkscape:tiled-clone-of="#path423"
         xlink:href="#path423"
         transform="translate(201.96272,159.68198)"
         id="use7583" /><use
         x="0"
         y="0"
         inkscape:tiled-clone-of="#path423"
         xlink:href="#path423"
         transform="translate(201.96272,186.29565)"
         id="use7585" /></g></g></svg>
