<svg width="140" height="149" viewBox="0 0 140 149" fill="none" xmlns="http://www.w3.org/2000/svg">
<g clip-path="url(#clip0_130_73)">
<path d="M78.4629 32.8965V51.7949L111.193 70.6934V51.7949L78.4629 32.8965ZM13 51.7949V70.6934L29.3652 80.1406V61.2441L13 51.7949ZM62.0957 61.2441L45.7305 70.6934V127.385L62.0957 136.834V99.0391L78.4629 108.488V89.5898L62.0957 80.1406V61.2441Z" fill="#E55B2D"/>
<path d="M78.4629 32.8965L29.3652 61.2441V80.1406L62.0957 61.2441V80.1406L78.4629 70.6934V32.8965ZM127.561 42.3457L111.193 51.7949V70.6934L127.561 61.2441V42.3457ZM94.8281 80.1406L78.4629 89.5898V108.488L94.8281 99.0391V80.1406ZM78.4629 108.488L62.0957 99.0391V136.834L78.4629 127.385V108.488Z" fill="#ED8E24"/>
<path d="M78.4629 14L13 51.7949L29.3652 61.2441L78.4629 32.8965L111.193 51.7949L127.561 42.3457L78.4629 14ZM78.4629 70.6934L62.0957 80.1406L78.4629 89.5898L94.8281 80.1406L78.4629 70.6934Z" fill="#F8BF3C"/>
</g>
<defs>
<clipPath id="clip0_130_73">
<rect width="114.561" height="122.834" fill="white" transform="translate(13 14)"/>
</clipPath>
</defs>
</svg>
